<svg xmlns="http://www.w3.org/2000/svg" xmlns:xlink="http://www.w3.org/1999/xlink" version="1.1" width="256" height="256" viewBox="0 0 256 256" xml:space="preserve">

<defs>
</defs>
<g style="stroke: none; stroke-width: 0; stroke-dasharray: none; stroke-linecap: butt; stroke-linejoin: miter; stroke-miterlimit: 10; fill: none; fill-rule: nonzero; opacity: 1;" transform="translate(1.4065934065934016 1.4065934065934016) scale(2.81 2.81)" >
	<path d="M 45 90 C 20.187 90 0 69.813 0 45 C 0 20.187 20.187 0 45 0 c 24.813 0 45 20.187 45 45 C 90 69.813 69.813 90 45 90 z M 45 6 C 23.495 6 6 23.495 6 45 s 17.495 39 39 39 s 39 -17.495 39 -39 S 66.505 6 45 6 z" style="stroke: none; stroke-width: 1; stroke-dasharray: none; stroke-linecap: butt; stroke-linejoin: miter; stroke-miterlimit: 10; fill: rgb(186,34,34); fill-rule: nonzero; opacity: 1;" transform=" matrix(1 0 0 1 0 0) " stroke-linecap="round" />
	<path d="M 54.627 71.333 H 35.373 c -1.657 0 -3 -1.343 -3 -3 V 57.627 H 21.667 c -1.657 0 -3 -1.343 -3 -3 V 35.373 c 0 -1.657 1.343 -3 3 -3 h 10.707 V 21.667 c 0 -1.657 1.343 -3 3 -3 h 19.254 c 1.657 0 3 1.343 3 3 v 10.707 h 10.706 c 1.657 0 3 1.343 3 3 v 19.254 c 0 1.657 -1.343 3 -3 3 H 57.627 v 10.706 C 57.627 69.99 56.284 71.333 54.627 71.333 z M 38.373 65.333 h 13.254 V 54.627 c 0 -1.657 1.343 -3 3 -3 h 10.706 V 38.373 H 54.627 c -1.657 0 -3 -1.343 -3 -3 V 24.667 H 38.373 v 10.707 c 0 1.657 -1.343 3 -3 3 H 24.667 v 13.254 h 10.707 c 1.657 0 3 1.343 3 3 V 65.333 z" style="stroke: none; stroke-width: 1; stroke-dasharray: none; stroke-linecap: butt; stroke-linejoin: miter; stroke-miterlimit: 10; fill: rgb(186,34,34); fill-rule: nonzero; opacity: 1;" transform=" matrix(1 0 0 1 0 0) " stroke-linecap="round" />
</g>
</svg>